<?xml version="1.0" encoding="UTF-8"?>
<svg xmlns="http://www.w3.org/2000/svg" version="1.1" viewBox="0 0 163.5 137.98">
  <defs>
    <style>
      .cls-1, .cls-2, .cls-3 {
        stroke-linejoin: round;
      }

      .cls-1, .cls-2, .cls-3, .cls-4 {
        fill: none;
        stroke: #231f20;
        stroke-linecap: round;
      }

      .cls-1, .cls-4 {
        stroke-width: 1.5px;
      }

      .cls-5 {
        fill: #231f20;
      }

      .cls-2 {
        stroke-width: 2px;
      }
    </style>
  </defs>
  <!-- Generator: Adobe Illustrator 28.7.1, SVG Export Plug-In . SVG Version: 1.2.0 Build 142)  -->
  <g>
    <g id="Layer_1">
      <g id="Center_Circle_Arrow">
        <polygon class="cls-1" points="67.94 102.44 67.82 101.38 67.54 100.32 67.11 99.34 66.56 98.41 65.9 97.57 65.12 96.85 64.22 96.24 63.26 95.77 62.26 95.41 61.18 95.21 60.11 95.17 59.05 95.29 57.99 95.56 57.01 96 56.08 96.55 55.24 97.21 54.52 97.99 53.87 98.88 53.4 99.85 53.08 100.85 52.88 101.93 52.84 103 52.96 104.06 53.23 105.12 53.63 106.14 54.18 107.03 54.88 107.87 55.66 108.59 56.55 109.23 57.52 109.71 58.52 110.03 59.6 110.23 60.67 110.27 61.73 110.15 62.79 109.87 63.77 109.48 64.7 108.93 65.54 108.23 66.26 107.45 66.86 106.55 67.34 105.63 67.7 104.59 67.9 103.51 67.94 102.44"/>
        <g>
          <line class="cls-1" x1="65.23" y1="97.03" x2="127.12" y2="22.62"/>
          <polygon class="cls-5" points="128.22 27.34 126.3 23.61 122.28 22.4 131.1 17.83 128.22 27.34"/>
        </g>
        <line class="cls-1" x1="56.55" y1="109.05" x2="40.7" y2="128.08"/>
      </g>
      <g id="Arc">
        <polyline class="cls-2" points="152.08 136.38 153.15 132.67 154.06 128.93 154.82 125.19 155.46 121.38 155.96 117.58 156.26 113.75 156.46 109.92 156.54 106.06 156.44 102.2 156.18 98.39 155.81 94.54 155.26 90.74 154.59 86.95 153.78 83.19 152.82 79.49 151.71 75.78 150.45 72.15 149.08 68.57 147.56 65.03 145.94 61.57 144.16 58.15 142.24 54.82 140.21 51.56 138.07 48.38 135.78 45.28 133.38 42.26 130.91 39.31 128.3 36.53 125.57 33.78 122.74 31.19 119.84 28.68 116.83 26.28 113.75 23.99 110.56 21.83 107.3 19.77 103.97 17.88 100.57 16.09 97.1 14.42 93.56 12.9 89.98 11.54 86.34 10.29 82.66 9.15 78.92 8.21 75.18 7.37 71.41 6.68 67.6 6.15 63.77 5.73 59.94 5.5 56.08 5.38 52.26 5.41"/>
        <polyline class="cls-3" points="148.22 135.17 149.28 131.5 150.19 127.76 150.95 123.98 151.56 120.18 152.02 116.38 152.32 112.55 152.48 108.68 152.49 104.86 152.35 101 152.01 97.16 151.57 93.36 150.98 89.56 150.24 85.8 149.32 82.05 148.28 78.34 147.1 74.68 145.77 71.09 144.28 67.55 142.66 64.05 140.92 60.63 139.03 57.26 137 54 134.86 50.82 132.57 47.72 130.17 44.7 127.67 41.79 125.06 38.97 122.33 36.26 119.5 33.67 116.56 31.2 113.51 28.83 110.4 26.59 107.17 24.46 103.91 22.45 100.55 20.62 97.11 18.88 93.6 17.29 90.03 15.85 86.42 14.56 82.75 13.38 79.04 12.36 75.3 11.52 71.52 10.8 67.72 10.23 63.88 9.81 60.05 9.54 56.19 9.42 52.37 9.45"/>
      </g>
      <g id="Text_1_C">
        <path class="cls-5" d="M44.02,91.17c-1.25,0-2.39.19-3.41.58-1.02.39-1.89.95-2.61,1.67s-1.28,1.61-1.67,2.66c-.39,1.05-.59,2.22-.59,3.54s.17,2.55.52,3.6c.34,1.05.86,1.94,1.55,2.65.69.72,1.55,1.26,2.58,1.64,1.03.37,2.24.56,3.62.56,1.04,0,2.03-.08,2.97-.25.94-.17,1.86-.36,2.77-.58v2.33c-.46.14-.91.27-1.37.38-.46.11-.93.2-1.43.27-.5.07-1.03.12-1.6.15-.57.03-1.2.05-1.89.05-1.92,0-3.58-.26-4.99-.78-1.41-.52-2.57-1.25-3.48-2.2-.92-.95-1.6-2.09-2.04-3.42-.45-1.33-.67-2.81-.67-4.43s.26-3.05.76-4.37,1.26-2.46,2.25-3.41c.99-.95,2.21-1.69,3.68-2.21s3.14-.79,5.04-.79c1.26,0,2.47.11,3.62.32,1.15.21,2.18.52,3.11.92l-1.37,2.24c-.74-.31-1.54-.57-2.4-.79-.87-.22-1.85-.33-2.95-.33h0Z"/>
        <path class="cls-5" d="M89.72,110.63v-8.58c0-1.05-.21-1.84-.63-2.37-.42-.53-1.06-.79-1.94-.79-.61,0-1.13.1-1.55.28-.43.19-.77.47-1.05.84s-.47.82-.59,1.37c-.13.55-.19,1.18-.19,1.89v7.35h-2.29v-8.58c0-1.05-.21-1.84-.62-2.37-.41-.53-1.06-.79-1.94-.79-.64,0-1.18.1-1.61.32s-.78.52-1.05.93-.45.92-.56,1.52c-.11.6-.17,1.29-.17,2.06v6.9h-2.28v-13.32h1.85l.33,1.8h.13c.2-.35.44-.65.71-.9.28-.26.58-.47.91-.64s.68-.29,1.05-.38.75-.12,1.13-.12c1,0,1.83.18,2.5.53.66.35,1.15.91,1.47,1.67h.1c.22-.38.48-.71.78-.98.31-.27.64-.5,1-.69.36-.18.75-.32,1.14-.41.4-.09.81-.13,1.23-.13,1.46,0,2.56.39,3.3,1.16s1.11,2.01,1.11,3.71v8.7h-2.28,0Z"/>
        <path class="cls-5" d="M102.44,110.88c-.49,0-.94-.05-1.34-.16-.4-.1-.76-.25-1.08-.42-.32-.17-.61-.38-.85-.61s-.46-.48-.66-.74h-.15c.03.27.05.54.08.79.02.21.03.43.05.65.02.22.03.4.03.53v5.69h-2.28v-19.29h1.85l.33,1.8h.1c.19-.28.41-.55.65-.8.24-.25.52-.46.85-.64.32-.18.68-.33,1.08-.44.4-.11.85-.16,1.35-.16.79,0,1.5.15,2.14.44.64.29,1.19.73,1.65,1.3s.81,1.3,1.06,2.15.38,1.85.38,2.99-.13,2.14-.38,3c-.25.86-.6,1.58-1.06,2.16s-1,1.02-1.65,1.32c-.64.29-1.36.44-2.14.44h0ZM102,98.9c-.63,0-1.17.09-1.61.28-.44.19-.79.47-1.06.85s-.47.85-.6,1.42-.2,1.23-.22,2v.5c0,.82.06,1.54.17,2.18.11.64.31,1.17.58,1.6s.63.76,1.08.98c.45.22,1.01.33,1.69.33,1.13,0,1.96-.44,2.49-1.32s.8-2.15.8-3.8-.27-2.94-.8-3.77c-.53-.83-1.37-1.25-2.51-1.25h0Z"/>
        <path class="cls-5" d="M119,110.63l-.46-1.84h-.1c-.28.37-.55.68-.83.94-.28.26-.58.48-.9.65s-.69.29-1.09.38c-.4.08-.86.12-1.39.12-.58,0-1.11-.08-1.59-.24-.49-.16-.9-.4-1.26-.73-.35-.33-.63-.74-.83-1.24s-.3-1.08-.3-1.77c0-1.33.48-2.34,1.44-3.06s2.43-1.1,4.4-1.17l2.3-.09v-.84c0-.54-.06-.99-.18-1.36-.12-.37-.3-.66-.53-.88-.23-.22-.51-.38-.85-.48s-.73-.15-1.16-.15c-.69,0-1.34.1-1.94.29s-1.17.43-1.72.7l-.8-1.66c.62-.32,1.31-.6,2.07-.82s1.56-.34,2.39-.34,1.59.08,2.21.25c.62.17,1.13.43,1.54.79.4.36.71.82.91,1.38.2.56.3,1.23.3,2.03v9.13h-1.64,0ZM114.82,109.09c.51,0,.98-.08,1.42-.23.43-.15.81-.39,1.13-.7s.57-.7.75-1.18c.18-.47.27-1.03.27-1.67v-1.2l-1.79.09c-.75.03-1.38.11-1.89.24s-.92.31-1.22.54c-.31.23-.52.51-.66.84-.13.33-.2.7-.2,1.11,0,.74.2,1.29.61,1.64s.94.52,1.6.52h0Z"/>
        <path class="cls-5" d="M133.09,106.98c0,.65-.12,1.21-.36,1.7-.24.49-.59.89-1.05,1.22-.46.33-1,.57-1.65.73s-1.36.24-2.17.24c-.91,0-1.69-.07-2.34-.21s-1.22-.35-1.72-.63v-2.01c.26.13.55.26.86.38.32.13.65.24,1,.33s.71.17,1.08.24c.37.06.74.09,1.11.09.54,0,1-.04,1.38-.13.38-.09.69-.22.93-.38s.41-.37.52-.61.16-.5.16-.8c0-.25-.04-.48-.13-.68-.08-.2-.23-.4-.46-.6-.22-.2-.52-.4-.91-.6-.38-.2-.88-.43-1.48-.68-.6-.25-1.14-.5-1.62-.74s-.89-.51-1.22-.81-.59-.64-.77-1.04c-.18-.39-.27-.86-.27-1.4s.11-1.07.34-1.51.55-.81.97-1.11c.42-.3.92-.53,1.5-.68.58-.15,1.24-.23,1.95-.23.81,0,1.55.09,2.22.26.67.17,1.31.39,1.91.67l-.79,1.78c-.54-.23-1.1-.44-1.67-.61s-1.15-.26-1.75-.26c-.85,0-1.48.14-1.89.41s-.61.66-.61,1.16c0,.28.05.53.14.74s.26.41.5.59.55.38.94.56c.39.19.88.4,1.47.64.6.24,1.14.49,1.61.73.47.24.87.52,1.21.82s.59.65.76,1.04c.17.39.26.85.26,1.4h0Z"/>
        <path class="cls-5" d="M144.66,106.98c0,.65-.12,1.21-.36,1.7-.24.49-.59.89-1.05,1.22-.46.33-1,.57-1.65.73s-1.36.24-2.17.24c-.91,0-1.69-.07-2.34-.21s-1.22-.35-1.72-.63v-2.01c.26.13.55.26.86.38.32.13.65.24,1,.33s.71.17,1.08.24c.37.06.74.09,1.11.09.54,0,1-.04,1.38-.13.38-.09.69-.22.93-.38.24-.17.41-.37.52-.61s.16-.5.16-.8c0-.25-.04-.48-.13-.68-.08-.2-.23-.4-.46-.6-.22-.2-.52-.4-.91-.6-.38-.2-.88-.43-1.48-.68-.6-.25-1.14-.5-1.62-.74s-.89-.51-1.22-.81-.59-.64-.77-1.04c-.18-.39-.27-.86-.27-1.4s.11-1.07.34-1.51.55-.81.97-1.11c.42-.3.92-.53,1.5-.68.58-.15,1.24-.23,1.95-.23.81,0,1.55.09,2.22.26.67.17,1.31.39,1.91.67l-.79,1.78c-.54-.23-1.1-.44-1.67-.61s-1.15-.26-1.75-.26c-.85,0-1.48.14-1.89.41s-.61.66-.61,1.16c0,.28.05.53.14.74s.26.41.5.59.55.38.94.56c.39.19.88.4,1.47.64.6.24,1.14.49,1.61.73.47.24.87.52,1.21.82s.59.65.76,1.04c.17.39.26.85.26,1.4h0Z"/>
        <path class="cls-5" d="M115.37,121.37l-.53-1.81h-2.66l-.53,1.81h-1.65l2.51-7.63h2l2.52,7.63h-1.65ZM114.46,118.21l-.5-1.66c-.02-.06-.05-.16-.09-.31s-.09-.3-.14-.47c-.05-.17-.09-.34-.14-.52-.04-.17-.07-.32-.09-.44-.01.08-.03.17-.05.27s-.05.21-.08.33c-.03.12-.06.23-.09.35-.03.12-.06.23-.09.33-.03.1-.05.2-.08.28-.02.08-.04.14-.05.18l-.49,1.66h1.88,0Z"/>
        <path class="cls-5" d="M122.43,121.37h-4.44v-7.6h4.44v1.32h-2.81v1.67h2.61v1.32h-2.61v1.96h2.81v1.33h0Z"/>
        <path class="cls-5" d="M129.05,116.13c0,.33-.05.65-.15.96s-.27.57-.5.81-.54.42-.92.56c-.38.14-.86.21-1.42.21h-.38v2.7h-1.64v-7.6h2.14c.5,0,.92.05,1.29.16.36.11.66.27.89.47.23.2.41.45.52.74s.17.63.17,1h0ZM125.68,117.34h.32c.46,0,.81-.09,1.04-.27s.35-.47.35-.88c0-.38-.1-.66-.31-.84-.21-.18-.54-.27-.98-.27h-.42v2.26h0Z"/>
        <path class="cls-5" d="M134.95,121.37h-4.44v-7.6h4.44v1.32h-2.81v1.67h2.61v1.32h-2.61v1.96h2.81v1.33h0Z"/>
        <path class="cls-5" d="M142.53,117.49c0,.64-.09,1.2-.27,1.69s-.44.89-.77,1.21c-.34.32-.75.57-1.24.73s-1.04.25-1.66.25h-2.03v-7.6h2.26c.57,0,1.08.08,1.53.24s.85.4,1.17.71.57.7.75,1.17c.17.46.26,1,.26,1.61h0ZM140.87,117.53c0-.42-.04-.79-.13-1.1-.09-.31-.21-.56-.38-.76-.16-.2-.37-.35-.6-.45s-.51-.15-.82-.15h-.75v4.95h.6c.69,0,1.21-.21,1.55-.62.35-.41.52-1.04.52-1.88h0Z"/>
        <line class="cls-4" x1="15.42" y1="111.16" x2="161.44" y2="111.16"/>
      </g>
    </g>
  </g>
</svg>