<?xml version="1.0" encoding="UTF-8"?>
<svg xmlns="http://www.w3.org/2000/svg" version="1.1" viewBox="0 0 577.5 528">
  <defs>
    <style>
      .cls-1 {
        stroke-width: 4px;
      }

      .cls-1, .cls-2, .cls-3, .cls-4 {
        fill: none;
        stroke: #fff;
        stroke-linecap: round;
      }

      .cls-1, .cls-2, .cls-4 {
        stroke-linejoin: round;
      }

      .cls-5 {
        fill: #fff;
      }

      .cls-2 {
        stroke-width: 5px;
      }

      .cls-3 {
        stroke-width: 7px;
      }

      .cls-4 {
        stroke-width: 11px;
      }
    </style>
  </defs>
  <!-- Generator: Adobe Illustrator 28.7.1, SVG Export Plug-In . SVG Version: 1.2.0 Build 142)  -->
  <g>
    <g id="Layer_1">
      <g>
        <g id="Center_Circle_Arrow">
          <polygon class="cls-2" points="211.4 385 211 381 209.9 376.9 208.3 373.2 206.2 369.6 203.6 366.4 200.6 363.6 197.2 361.3 193.5 359.5 189.7 358.1 185.5 357.3 181.4 357.2 177.4 357.6 173.3 358.7 169.6 360.4 166 362.5 162.8 365 160 368 157.5 371.4 155.7 375.1 154.5 379 153.7 383.1 153.6 387.2 154 391.3 155.1 395.3 156.6 399.2 158.7 402.6 161.4 405.9 164.4 408.6 167.8 411.1 171.5 412.9 175.4 414.2 179.5 414.9 183.6 415.1 187.7 414.6 191.7 413.5 195.4 412 199 409.9 202.3 407.2 205 404.3 207.3 400.8 209.2 397.3 210.5 393.3 211.3 389.1 211.4 385"/>
          <g>
            <line class="cls-1" x1="201.1" y1="364.3" x2="438.4" y2="79"/>
            <polygon class="cls-5" points="442.6 97.1 435.2 82.8 419.8 78.2 453.6 60.7 442.6 97.1"/>
          </g>
          <line class="cls-1" x1="167.8" y1="410.4" x2="107" y2="483.4"/>
        </g>
        <g id="Arc">
          <polyline class="cls-4" points="534.1 515.2 538.2 501 541.7 486.6 544.6 472.3 547 457.7 548.9 443.1 550.1 428.4 550.9 413.7 551.2 398.9 550.8 384.1 549.8 369.5 548.4 354.8 546.3 340.2 543.7 325.7 540.6 311.3 536.9 297 532.6 282.8 527.8 268.9 522.6 255.2 516.8 241.6 510.5 228.4 503.7 215.2 496.3 202.4 488.5 189.9 480.3 177.8 471.6 165.9 462.4 154.3 452.9 143 442.9 132.3 432.4 121.8 421.6 111.9 410.5 102.2 398.9 93 387.1 84.3 374.9 76 362.4 68.1 349.6 60.8 336.5 54 323.2 47.6 309.7 41.8 296 36.5 282 31.7 267.9 27.4 253.6 23.7 239.2 20.5 224.8 17.9 210.2 15.9 195.5 14.2 180.8 13.4 166 12.9 151.3 13"/>
          <polyline class="cls-1" points="519.3 510.6 523.3 496.5 526.8 482.1 529.7 467.7 532.1 453.1 533.8 438.5 535 423.8 535.6 409 535.6 394.3 535.1 379.5 533.8 364.8 532.1 350.2 529.9 335.6 527 321.2 523.5 306.9 519.5 292.6 515 278.6 509.9 264.9 504.2 251.3 497.9 237.9 491.3 224.8 484 211.8 476.2 199.3 468 187.1 459.3 175.2 450.1 163.7 440.5 152.5 430.5 141.7 420 131.3 409.1 121.4 397.9 111.9 386.2 102.8 374.2 94.2 361.9 86.1 349.4 78.3 336.5 71.3 323.3 64.7 309.9 58.5 296.2 53 282.3 48.1 268.2 43.6 254 39.7 239.7 36.5 225.2 33.7 210.6 31.5 195.9 29.9 181.2 28.9 166.4 28.4 151.8 28.5"/>
        </g>
        <g id="Text_1_C">
          <path class="cls-5" d="M119.7,341.9c-4.8,0-9.2.7-13.1,2.2-3.9,1.5-7.2,3.6-10,6.4s-4.9,6.2-6.4,10.2c-1.5,4-2.2,8.5-2.2,13.6s.7,9.8,2,13.8c1.3,4,3.3,7.4,6,10.2,2.7,2.8,5.9,4.9,9.9,6.3,3.9,1.4,8.6,2.1,13.9,2.1s7.8-.3,11.4-1c3.6-.6,7.1-1.4,10.6-2.2v8.9c-1.8.5-3.5,1-5.2,1.5-1.8.4-3.6.8-5.5,1-1.9.3-3.9.5-6.1.6-2.2.1-4.6.2-7.2.2-7.4,0-13.7-1-19.1-3-5.4-2-9.8-4.8-13.4-8.4-3.5-3.6-6.1-8-7.8-13.1-1.7-5.1-2.6-10.8-2.6-17s1-11.7,2.9-16.8,4.8-9.4,8.6-13.1c3.8-3.6,8.5-6.5,14.1-8.5s12.1-3,19.3-3,9.5.4,13.9,1.2c4.4.8,8.4,2,11.9,3.5l-5.2,8.6c-2.8-1.2-5.9-2.2-9.2-3-3.3-.9-7.1-1.3-11.3-1.3h0Z"/>
          <path class="cls-5" d="M295,416.5v-32.9c0-4-.8-7.1-2.4-9.1-1.6-2-4.1-3-7.4-3s-4.3.4-6,1.1c-1.6.7-3,1.8-4,3.2s-1.8,3.2-2.3,5.3c-.5,2.1-.7,4.5-.7,7.2v28.2h-8.8v-32.9c0-4-.8-7.1-2.4-9.1-1.6-2-4.1-3-7.4-3s-4.5.4-6.2,1.2-3,2-4,3.6-1.7,3.5-2.2,5.8c-.4,2.3-.6,4.9-.6,7.9v26.5h-8.7v-51.1h7.1l1.2,6.9h.5c.8-1.3,1.7-2.5,2.7-3.5,1.1-1,2.2-1.8,3.5-2.4s2.6-1.1,4-1.4,2.9-.5,4.3-.5c3.8,0,7,.7,9.6,2,2.5,1.4,4.4,3.5,5.6,6.4h.4c.8-1.5,1.8-2.7,3-3.8,1.2-1,2.5-1.9,3.8-2.6,1.4-.7,2.9-1.2,4.4-1.6,1.5-.3,3.1-.5,4.7-.5,5.6,0,9.8,1.5,12.6,4.4s4.2,7.7,4.2,14.2v33.4h-8.7,0Z"/>
          <path class="cls-5" d="M343.7,417.4c-1.9,0-3.6-.2-5.1-.6-1.5-.4-2.9-.9-4.1-1.6-1.2-.7-2.3-1.5-3.3-2.4s-1.8-1.8-2.5-2.8h-.6c.1,1,.2,2.1.3,3,0,.8.1,1.6.2,2.5,0,.9.1,1.5.1,2v21.8h-8.7v-74h7.1l1.2,6.9h.4c.7-1.1,1.6-2.1,2.5-3,.9-1,2-1.8,3.2-2.5,1.2-.7,2.6-1.3,4.1-1.7,1.5-.4,3.3-.6,5.2-.6,3,0,5.8.6,8.2,1.7,2.5,1.1,4.6,2.8,6.3,5s3.1,5,4.1,8.3,1.4,7.1,1.4,11.5-.5,8.2-1.4,11.5c-1,3.3-2.3,6.1-4.1,8.3s-3.9,3.9-6.3,5c-2.5,1.1-5.2,1.7-8.2,1.7h0ZM342.1,371.5c-2.4,0-4.5.4-6.2,1.1-1.7.7-3,1.8-4.1,3.3s-1.8,3.3-2.3,5.4-.8,4.7-.8,7.7v1.9c0,3.1.2,5.9.6,8.4.4,2.4,1.2,4.5,2.2,6.1s2.4,2.9,4.1,3.8c1.7.9,3.9,1.3,6.5,1.3,4.3,0,7.5-1.7,9.5-5.1s3-8.2,3-14.6-1-11.3-3-14.5c-2-3.2-5.2-4.8-9.6-4.8h0Z"/>
          <path class="cls-5" d="M407.2,416.5l-1.8-7.1h-.4c-1.1,1.4-2.1,2.6-3.2,3.6-1.1,1-2.2,1.8-3.5,2.5s-2.6,1.1-4.2,1.4c-1.5.3-3.3.5-5.3.5s-4.2-.3-6.1-.9c-1.9-.6-3.5-1.5-4.8-2.8-1.4-1.3-2.4-2.8-3.2-4.8s-1.1-4.2-1.1-6.8c0-5.1,1.9-9,5.5-11.7s9.3-4.2,16.9-4.5l8.8-.3v-3.2c0-2.1-.2-3.8-.7-5.2-.5-1.4-1.1-2.5-2-3.4-.9-.9-2-1.5-3.3-1.8s-2.8-.6-4.4-.6c-2.7,0-5.1.4-7.4,1.1s-4.5,1.6-6.6,2.7l-3.1-6.4c2.4-1.2,5-2.3,7.9-3.2s6-1.3,9.2-1.3,6.1.3,8.5,1c2.4.6,4.4,1.6,5.9,3,1.5,1.4,2.7,3.1,3.5,5.3.8,2.1,1.1,4.7,1.1,7.8v35h-6.3,0ZM391.2,410.6c2,0,3.8-.3,5.4-.9,1.7-.6,3.1-1.5,4.3-2.7s2.2-2.7,2.9-4.5c.7-1.8,1-4,1-6.4v-4.6l-6.9.3c-2.9.1-5.3.4-7.2.9s-3.5,1.2-4.7,2.1c-1.2.9-2,2-2.5,3.2-.5,1.3-.8,2.7-.8,4.3,0,2.9.8,5,2.3,6.3s3.6,2,6.1,2h0Z"/>
          <path class="cls-5" d="M461.3,402.5c0,2.5-.5,4.6-1.4,6.5-.9,1.9-2.3,3.4-4,4.7-1.8,1.3-3.9,2.2-6.3,2.8s-5.2.9-8.3.9-6.5-.3-9-.8-4.7-1.3-6.6-2.4v-7.7c1,.5,2.1,1,3.3,1.5,1.2.5,2.5.9,3.8,1.3s2.7.7,4.1.9c1.4.2,2.8.4,4.2.4,2.1,0,3.9-.2,5.3-.5,1.5-.3,2.6-.8,3.5-1.5s1.6-1.4,2-2.3.6-1.9.6-3-.2-1.8-.5-2.6c-.3-.8-.9-1.5-1.8-2.3-.9-.8-2-1.5-3.5-2.3-1.5-.8-3.4-1.6-5.7-2.6-2.3-1-4.4-1.9-6.2-2.8s-3.4-2-4.7-3.1-2.3-2.5-3-4c-.7-1.5-1-3.3-1-5.4s.4-4.1,1.3-5.8,2.1-3.1,3.7-4.3c1.6-1.1,3.5-2,5.8-2.6,2.2-.6,4.7-.9,7.5-.9s5.9.3,8.5,1c2.6.6,5,1.5,7.3,2.6l-3,6.8c-2.1-.9-4.2-1.7-6.4-2.4s-4.4-1-6.7-1c-3.3,0-5.7.5-7.2,1.6s-2.4,2.5-2.4,4.4.2,2,.5,2.8,1,1.6,1.9,2.3,2.1,1.4,3.6,2.2c1.5.7,3.4,1.5,5.6,2.4,2.3.9,4.4,1.9,6.2,2.8,1.8.9,3.4,2,4.6,3.1s2.3,2.5,2.9,4c.7,1.5,1,3.3,1,5.4h0Z"/>
          <path class="cls-5" d="M505.6,402.5c0,2.5-.5,4.6-1.4,6.5-.9,1.9-2.3,3.4-4,4.7-1.8,1.3-3.9,2.2-6.3,2.8s-5.2.9-8.3.9-6.5-.3-9-.8-4.7-1.3-6.6-2.4v-7.7c1,.5,2.1,1,3.3,1.5,1.2.5,2.5.9,3.8,1.3s2.7.7,4.1.9c1.4.2,2.8.4,4.2.4,2.1,0,3.9-.2,5.3-.5,1.5-.3,2.6-.8,3.5-1.5.9-.6,1.6-1.4,2-2.3s.6-1.9.6-3-.2-1.8-.5-2.6c-.3-.8-.9-1.5-1.8-2.3-.9-.8-2-1.5-3.5-2.3-1.5-.8-3.4-1.6-5.7-2.6-2.3-1-4.4-1.9-6.2-2.8s-3.4-2-4.7-3.1-2.3-2.5-3-4c-.7-1.5-1-3.3-1-5.4s.4-4.1,1.3-5.8,2.1-3.1,3.7-4.3c1.6-1.1,3.5-2,5.8-2.6,2.2-.6,4.7-.9,7.5-.9s5.9.3,8.5,1c2.6.6,5,1.5,7.3,2.6l-3,6.8c-2.1-.9-4.2-1.7-6.4-2.4s-4.4-1-6.7-1c-3.3,0-5.7.5-7.2,1.6s-2.4,2.5-2.4,4.4.2,2,.5,2.8,1,1.6,1.9,2.3,2.1,1.4,3.6,2.2c1.5.7,3.4,1.5,5.6,2.4,2.3.9,4.4,1.9,6.2,2.8,1.8.9,3.4,2,4.6,3.1s2.3,2.5,2.9,4c.7,1.5,1,3.3,1,5.4h0Z"/>
          <path class="cls-5" d="M393.3,457.6l-2-6.9h-10.2l-2,6.9h-6.3l9.6-29.3h7.7l9.6,29.3h-6.3ZM389.8,445.5l-1.9-6.4c0-.2-.2-.6-.4-1.2s-.3-1.1-.5-1.8c-.2-.7-.4-1.3-.5-2-.2-.7-.3-1.2-.3-1.7,0,.3-.1.6-.2,1s-.2.8-.3,1.3c-.1.5-.2.9-.4,1.4-.1.5-.2.9-.3,1.3-.1.4-.2.8-.3,1.1,0,.3-.1.5-.2.7l-1.9,6.4h7.2,0Z"/>
          <path class="cls-5" d="M420.4,457.6h-17v-29.1h17v5.1h-10.8v6.4h10v5.1h-10v7.5h10.8v5.1h0Z"/>
          <path class="cls-5" d="M445.8,437.6c0,1.3-.2,2.5-.6,3.7s-1,2.2-1.9,3.1-2.1,1.6-3.5,2.1c-1.5.5-3.3.8-5.4.8h-1.4v10.4h-6.3v-29.1h8.2c1.9,0,3.5.2,4.9.6,1.4.4,2.5,1,3.4,1.8.9.8,1.6,1.7,2,2.9s.6,2.4.6,3.8h0ZM432.8,442.2h1.2c1.8,0,3.1-.4,4-1s1.4-1.8,1.4-3.4-.4-2.5-1.2-3.2c-.8-.7-2.1-1-3.8-1h-1.6v8.6h0Z"/>
          <path class="cls-5" d="M468.4,457.6h-17v-29.1h17v5.1h-10.8v6.4h10v5.1h-10v7.5h10.8v5.1h0Z"/>
          <path class="cls-5" d="M497.5,442.8c0,2.5-.3,4.6-1,6.5s-1.7,3.4-3,4.6c-1.3,1.2-2.9,2.2-4.7,2.8s-4,.9-6.4.9h-7.8v-29.1h8.7c2.2,0,4.1.3,5.9.9s3.2,1.5,4.5,2.7,2.2,2.7,2.9,4.5c.7,1.8,1,3.8,1,6.2h0ZM491.1,442.9c0-1.6-.2-3-.5-4.2-.3-1.2-.8-2.1-1.4-2.9-.6-.8-1.4-1.3-2.3-1.7s-2-.6-3.1-.6h-2.9v19h2.3c2.6,0,4.6-.8,6-2.4,1.3-1.6,2-4,2-7.2h0Z"/>
          <line class="cls-3" x1="10.1" y1="418.5" x2="570" y2="418.5"/>
        </g>
      </g>
    </g>
  </g>
</svg>